<svg width="11" height="15" viewBox="0 0 11 15" fill="none" xmlns="http://www.w3.org/2000/svg">
<path d="M7.55527 4.14194C4.39183 2.04263 5.8234 0 5.8234 0C2.74811 1.77068 2.06735 4.47328 2.82069 7.89032C1.71271 6.99196 1.5522 5.92807 1.5885 4.52502C0.177674 6.03421 -0.0760188 7.63136 0.0171666 9.36072C0.106369 11.1381 1.10963 12.7422 2.66866 13.6005C4.22754 14.4586 6.11971 14.4481 7.66939 13.5727C9.2187 12.6973 10.2043 11.0819 10.2736 9.30365C10.3823 7.04381 9.42438 5.38171 7.55527 4.14194ZM5.48428 13.0469C4.77771 13.0495 4.0865 12.8413 3.49892 12.4489C3.63867 12.4626 3.77844 12.4696 3.9182 12.4696C5.12984 12.4642 6.29016 11.9795 7.14571 11.1217C8.00127 10.2636 8.48265 9.10201 8.48465 7.89038C8.48465 7.75061 8.47777 7.61086 8.46387 7.4711C8.85661 8.05414 9.06737 8.74051 9.06969 9.44347C9.07095 10.3978 8.69318 11.3136 8.01947 11.9893C7.34558 12.6652 6.4308 13.0457 5.47647 13.0469H5.48428Z" fill="#4498B8"/>
</svg>
