<svg width="45" height="45" viewBox="0 0 45 45" fill="none" xmlns="http://www.w3.org/2000/svg">
<path fill-rule="evenodd" clip-rule="evenodd" d="M8.17874 0C3.66175 0 0 3.66175 0 8.17874C0 8.48549 0.24867 8.73416 0.555421 8.73416H45C45 3.91042 41.0896 0 36.2658 0H8.17874ZM45 28.6203V8.73424H36.2288L36.2288 28.6203C36.2288 29.1726 36.6765 29.6203 37.2288 29.6203H44C44.5523 29.6203 45 29.1726 45 28.6203ZM0 16.3797V36.2657H8.77118L8.77118 16.3797C8.77118 15.8274 8.32347 15.3797 7.77118 15.3797H0.999999C0.447714 15.3797 0 15.8274 0 16.3797ZM36.8213 45C41.3383 45 45 41.3382 45 36.8212C45 36.5145 44.7513 36.2658 44.4446 36.2658L0 36.2658C0 41.0895 3.91042 45 8.73416 45L36.8213 45ZM22.5953 16.1392C19.0824 16.1392 16.2076 18.987 16.2076 22.5C16.2076 26.0129 19.0824 28.8607 22.5953 28.8607C26.1083 28.8607 28.9831 26.0129 28.9831 22.5C28.9831 18.987 26.1083 16.1392 22.5953 16.1392Z" fill="white"/>
</svg>
