<svg width="24" height="18" viewBox="0 0 24 18" fill="none" xmlns="http://www.w3.org/2000/svg">
<g opacity="0.5">
<path opacity="0.5" fill-rule="evenodd" clip-rule="evenodd" d="M2 1.5H22C22.2761 1.5 22.5 1.72386 22.5 2V3.42859H1.5V2C1.5 1.72386 1.72386 1.5 2 1.5ZM0 6.85716V3.42859V2C0 0.895429 0.895431 0 2 0H22C23.1046 0 24 0.895431 24 2V3.42859V6.85716V15.1429C24 16.2474 23.1046 17.1429 22 17.1429H2C0.89543 17.1429 0 16.2474 0 15.1429V6.85716ZM22.5 6.85716V15.1429C22.5 15.419 22.2761 15.6429 22 15.6429H2C1.72386 15.6429 1.5 15.419 1.5 15.1429V6.85716H22.5Z" fill="white"/>
</g>
</svg>
