<svg width="16" height="20" viewBox="0 0 16 20" fill="none" xmlns="http://www.w3.org/2000/svg">
<path opacity="0.5" d="M14.0004 19.9998H1.9998C0.89711 19.9998 0 19.1027 0 18V6.8301C0 6.30095 0.21519 5.78331 0.5904 5.4099L5.4099 0.5904C5.78331 0.21519 6.30095 0 6.8301 0H14.0004C15.1031 0 16.0002 0.89711 16.0002 1.9998V18C16.0002 19.1027 15.1031 19.9998 14.0004 19.9998ZM3.5001 14.0004C3.22418 14.0004 2.9997 14.2245 2.9997 14.4999V15.4998C2.9997 15.7757 3.22418 16.0002 3.5001 16.0002H8.4996C8.77552 16.0002 9 15.7757 9 15.4998V14.4999C9 14.2245 8.77552 14.0004 8.4996 14.0004H3.5001ZM3.5001 9.9999C3.22418 9.9999 2.9997 10.2244 2.9997 10.5003V11.5002C2.9997 11.7756 3.22418 11.9997 3.5001 11.9997H12.5001C12.7755 11.9997 12.9996 11.7756 12.9996 11.5002V10.5003C12.9996 10.2244 12.7755 9.9999 12.5001 9.9999H3.5001ZM7.0002 1.8198L1.8198 7.0002H6.0003C6.55165 7.0002 7.0002 6.55165 7.0002 6.0003V1.8198Z" fill="white"/>
</svg>
