<svg width="16" height="20" viewBox="0 0 16 20" fill="none" xmlns="http://www.w3.org/2000/svg">
<path opacity="0.5" d="M8.0001 19.9998C6.89741 19.9998 6.0003 19.1027 6.0003 18H9.9999C9.9999 19.1031 9.10234 19.9998 8.0001 19.9998ZM15.0003 16.0002H0.9999C0.44855 16.0002 0 15.5517 0 15.0003V14.4099C0.00089 14.15 0.10652 13.8948 0.2898 13.7097L1.1196 12.8799C1.67808 12.3232 1.9989 11.5507 1.9998 10.7604V8.0001C1.9998 6.7103 2.42618 5.43179 3.2004 4.4001L4.1004 3.2004C4.66334 2.44862 5.56031 1.9998 6.4998 1.9998H7.0002V0.5004C7.0002 0.22448 7.22427 0 7.4997 0H8.4996C8.77552 0 9 0.22448 9 0.5004V1.9998H9.5004C10.4399 1.9998 11.3369 2.44862 11.8998 3.2004L12.7998 4.4001C13.574 5.43179 14.0004 6.7103 14.0004 8.0001V10.7604C14.0004 11.5495 14.3209 12.322 14.8797 12.8799L15.7104 13.7097C15.8937 13.8948 15.9993 14.15 16.0002 14.4099V15.0003C16.0002 15.5517 15.5517 16.0002 15.0003 16.0002Z" fill="white"/>
</svg>
